<svg width="22" height="21" viewBox="0 0 22 21" fill="none" xmlns="http://www.w3.org/2000/svg">
<path d="M9.23001 20.0318C4.45797 19.6046 0.859393 17.4678 0.859393 15.0614C0.859393 14.4988 1.05379 13.9426 1.43721 13.408C1.57871 13.2107 1.539 12.9321 1.34847 12.7855C1.15795 12.639 0.888827 12.6802 0.747285 12.8774C0.251416 13.5687 0 14.3035 0 15.0614C0 16.5283 0.968321 17.9278 2.72664 19.0021C4.38454 20.0152 6.6679 20.6958 9.15602 20.9185C9.16861 20.9196 9.18111 20.9202 9.19353 20.9202C9.41409 20.9202 9.60179 20.7452 9.62116 20.5135C9.64153 20.2686 9.46647 20.053 9.23001 20.0318Z" fill="#9FC460"/>
<path d="M11.1073 20.1099L11.0817 20.11C10.8444 20.1113 10.653 20.3116 10.6543 20.5573C10.6556 20.8023 10.8477 20.9999 11.084 20.9999C11.0847 20.9999 11.0855 20.9999 11.0863 20.9999L11.1072 20.9998C11.3446 20.9998 11.5369 20.8006 11.5369 20.5548C11.5369 20.3091 11.3446 20.1099 11.1073 20.1099Z" fill="#9FC460"/>
<path d="M21.427 13.139C21.6576 13.1309 21.8422 12.9354 21.8422 12.6947C21.8422 12.449 21.6498 12.2498 21.4125 12.2498H20.5469C20.3096 12.2498 20.1172 12.449 20.1172 12.6947V13.5911C20.1172 13.8369 20.3096 14.0361 20.5469 14.0361C20.6694 14.0361 20.7797 13.9828 20.8579 13.8976C21.0457 14.2792 21.1406 14.6692 21.1406 15.0616C21.1406 17.4685 17.5412 19.6054 12.768 20.0323C12.5316 20.0535 12.3565 20.2691 12.3769 20.5139C12.3962 20.7457 12.5839 20.9206 12.8045 20.9206C12.8169 20.9206 12.8294 20.9201 12.842 20.9189C15.3306 20.6964 17.6143 20.0159 19.2727 19.0028C21.0314 17.9283 22 16.5287 22 15.0616C22 14.3996 21.8073 13.7535 21.427 13.139Z" fill="#9FC460"/>
<path d="M11.0003 3.62695C10.7629 3.62695 10.5706 3.82621 10.5706 4.07193V5.04323C10.5706 5.28894 10.7629 5.48821 11.0003 5.48821C11.2376 5.48821 11.4299 5.28894 11.4299 5.04323V4.07193C11.4299 3.82621 11.2376 3.62695 11.0003 3.62695Z" fill="#9FC460"/>
<path d="M18.3946 4.35229L11.2149 0.0596381C11.0819 -0.0198794 10.9181 -0.0198794 10.7852 0.0596381L3.60547 4.35229C3.47253 4.43177 3.39062 4.5787 3.39062 4.73764V13.3229C3.39062 13.4819 3.47248 13.6288 3.60547 13.7083L10.7852 18.0009C10.8517 18.0407 10.9258 18.0605 11 18.0605C11.0742 18.0605 11.1484 18.0407 11.2149 18.0009L18.3946 13.7083C18.5275 13.6288 18.6094 13.4819 18.6094 13.3229V4.73764C18.6094 4.5787 18.5275 4.43177 18.3946 4.35229ZM10.5703 16.8448L4.67971 13.3229L5.08608 13.08C5.2916 12.957 5.36203 12.6849 5.24335 12.4721C5.12471 12.2593 4.86191 12.1863 4.65638 12.3092L4.24998 12.5522V5.50866L10.1371 9.03239L9.39924 9.47354C9.19372 9.59644 9.12329 9.86855 9.24197 10.0814C9.32155 10.2241 9.46597 10.304 9.61448 10.304C9.68735 10.304 9.76126 10.2847 9.82894 10.2442L10.5703 9.801V16.8448ZM11 6.94825C10.7627 6.94825 10.5703 7.14751 10.5703 7.39323V8.26374L4.6795 4.73778L10.5703 1.21573V1.7219C10.5703 1.96761 10.7627 2.16687 11 2.16687C11.2374 2.16687 11.4297 1.96761 11.4297 1.7219V1.21573L17.3206 4.73778L11.4297 8.26374V7.39323C11.4297 7.14751 11.2374 6.94825 11 6.94825ZM17.7501 12.5522L17.3436 12.3092C17.1381 12.1864 16.8754 12.2593 16.7567 12.4721C16.638 12.6849 16.7084 12.957 16.9139 13.08L17.3203 13.3229L11.4297 16.8448V9.801L12.1711 10.2442C12.2388 10.2847 12.3127 10.304 12.3856 10.304C12.5341 10.304 12.6785 10.2241 12.7581 10.0814C12.8768 9.86855 12.8063 9.59644 12.6008 9.47354L11.863 9.03239L17.7501 5.50866V12.5522Z" fill="#9FC460"/>
<path d="M15.379 11.1342L14.5667 10.6485C14.3612 10.5257 14.0984 10.5986 13.9798 10.8114C13.8611 11.0242 13.9316 11.2964 14.137 11.4192L14.9493 11.9049C15.017 11.9453 15.0909 11.9646 15.1638 11.9646C15.3123 11.9646 15.4567 11.8848 15.5363 11.742C15.655 11.5292 15.5846 11.2571 15.379 11.1342Z" fill="#9FC460"/>
<path d="M8.02068 10.8114C7.902 10.5986 7.63924 10.5257 7.43372 10.6486L6.62142 11.1342C6.41589 11.2571 6.34547 11.5292 6.46415 11.7421C6.54373 11.8848 6.68815 11.9646 6.83665 11.9646C6.90953 11.9646 6.98344 11.9454 7.05111 11.9049L7.86341 11.4193C8.06894 11.2964 8.13936 11.0243 8.02068 10.8114Z" fill="#9FC460"/>
</svg>
